# xmcd
#
# Track frame offsets: 
#        150
#        32738
#        53812
#        76539
#        94603
#        110565
#
# Disc length: 1669 seconds
#
# Revision: 0
# Processed by: cddbd v1.5.2PL0 Copyright (c) Steve Scherf et al.
# Submitted via: ExactAudioCopyFreeDBPlugin 1.0
#
DISCID=3b068306
DTITLE=Windy City Rev Ups - The R&B Sessions
DYEAR=1900
DGENRE=Blues
TTITLE0=Riviera Paradise
TTITLE1=Mozambique
TTITLE2=Paint It Black
TTITLE3=Moon Dance
TTITLE4=Ain't No Sunshine
TTITLE5=Coming Home Baby
EXTD=
EXTT0=
EXTT1=
EXTT2=
EXTT3=
EXTT4=
EXTT5=
PLAYORDER=
